<svg xmlns="http://www.w3.org/2000/svg" viewBox="0 0 320 320" role="img" aria-labelledby="title desc">
  <title id="title">Calendario escolar</title>
  <desc id="desc">Ilustración de un calendario con marca de verificación</desc>
  <defs>
    <linearGradient id="bg" x1="0" y1="0" x2="1" y2="1">
      <stop offset="0%" stop-color="#ecfdf5" />
      <stop offset="100%" stop-color="#d1fae5" />
    </linearGradient>
    <linearGradient id="head" x1="0" y1="0" x2="1" y2="1">
      <stop offset="0%" stop-color="#22c55e" />
      <stop offset="100%" stop-color="#15803d" />
    </linearGradient>
  </defs>

  <rect width="320" height="320" rx="36" fill="url(#bg)" />
  <rect x="52" y="62" width="216" height="196" rx="20" fill="#ffffff" stroke="#bbf7d0" stroke-width="6" />
  <rect x="52" y="62" width="216" height="52" rx="20" fill="url(#head)" />

  <rect x="84" y="38" width="20" height="42" rx="10" fill="#166534" />
  <rect x="216" y="38" width="20" height="42" rx="10" fill="#166534" />

  <g fill="#dcfce7">
    <rect x="82" y="132" width="34" height="24" rx="6" />
    <rect x="126" y="132" width="34" height="24" rx="6" />
    <rect x="170" y="132" width="34" height="24" rx="6" />
    <rect x="214" y="132" width="34" height="24" rx="6" />
    <rect x="82" y="166" width="34" height="24" rx="6" />
    <rect x="126" y="166" width="34" height="24" rx="6" />
    <rect x="170" y="166" width="34" height="24" rx="6" />
    <rect x="214" y="166" width="34" height="24" rx="6" />
    <rect x="82" y="200" width="34" height="24" rx="6" />
    <rect x="126" y="200" width="34" height="24" rx="6" />
    <rect x="170" y="200" width="34" height="24" rx="6" />
    <rect x="214" y="200" width="34" height="24" rx="6" />
  </g>

  <circle cx="224" cy="224" r="34" fill="#22c55e" />
  <path d="M208 224l12 12 22-24" fill="none" stroke="#ffffff" stroke-width="8" stroke-linecap="round" stroke-linejoin="round" />
</svg>
